<?xml version="1.0" encoding="UTF-8" standalone="no"?>
<svg
   xmlns:dc="http://purl.org/dc/elements/1.1/"
   xmlns:cc="http://creativecommons.org/ns#"
   xmlns:rdf="http://www.w3.org/1999/02/22-rdf-syntax-ns#"
   xmlns:svg="http://www.w3.org/2000/svg"
   xmlns="http://www.w3.org/2000/svg"
   xmlns:sodipodi="http://sodipodi.sourceforge.net/DTD/sodipodi-0.dtd"
   xmlns:inkscape="http://www.inkscape.org/namespaces/inkscape"
   sodipodi:docname="font.svg"
   id="svg8"
   version="1.1"
   viewBox="0 0 875 1000"
   height="1000"
   width="875"
   inkscape:version="1.0.2-2 (e86c870879, 2021-01-15)">
  <defs
     id="defs2">
    <font
       horiz-adv-x="1000"
       id="font922"
       inkscape:label="フォント 1"
       horiz-origin-x="0"
       horiz-origin-y="0"
       vert-origin-x="512"
       vert-origin-y="768"
       vert-adv-y="1024">
      <font-face
         units-per-em="1024"
         id="font-face924"
         font-family="sevendays" />
      <missing-glyph
         d="M0,0h1000v1024h-1000z"
         id="missing-glyph926" />
      <glyph
         glyph-name="a"
         id="glyph928"
         unicode="a"
         d="M 125,899 V 274 H 250 V 149 H 625 V 274 H 750 V 899 Z M 0,149 V 24 h 125 v 125 z m 750,0 V 24 h 125 v 125 z" />
      <glyph
         glyph-name="A"
         id="glyph939"
         unicode="A"
         d="M 125,899 V 274 H 250 V 149 H 625 V 274 H 750 V 899 Z M 0,149 V 24 h 125 v 125 z m 750,0 V 24 h 125 v 125 z" />
      <glyph
         glyph-name="b"
         id="glyph941"
         unicode="b"
         d="M 750,149 H 125 V 274 H 0 V 649 H 125 V 774 H 750 V 524 H 250 V 399 h 500 z"
         horiz-adv-x="875.00" />
      <glyph
         glyph-name="B"
         id="glyph943"
         unicode="B"
         d="M 750,149 H 125 V 274 H 0 V 649 H 125 V 774 H 750 V 524 H 250 V 399 h 500 z"
         horiz-adv-x="875.00" />
      <glyph
         glyph-name="c"
         id="glyph945"
         unicode="c"
         d="M 750,774 H 125 V 649 H 0 V 274 H 125 V 149 H 750 Z M 375,524 H 500 V 399 H 375 Z"
         horiz-adv-x="875.00" />
      <glyph
         glyph-name="C"
         id="glyph947"
         unicode="C"
         d="M 750,774 H 125 V 649 H 0 V 274 H 125 V 149 H 750 Z M 375,524 H 500 V 399 H 375 Z"
         horiz-adv-x="875.00" />
      <glyph
         glyph-name="d"
         id="glyph949"
         unicode="d"
         d="M 0,899 V 24 H 125 V 274 H 250 V 399 H 375 V 524 H 250 V 649 H 125 V 899 Z M 250,649 H 375 V 524 H 500 V 399 H 375 V 274 H 250 V 149 H 750 V 774 H 250 Z"
         horiz-adv-x="875.00" />
      <glyph
         glyph-name="D"
         id="glyph951"
         unicode="D"
         d="M 0,899 V 24 H 125 V 274 H 250 V 399 H 375 V 524 H 250 V 649 H 125 V 899 Z M 250,649 H 375 V 524 H 500 V 399 H 375 V 274 H 250 V 149 H 750 V 774 H 250 Z"
         horiz-adv-x="875.00" />
      <glyph
         glyph-name="e"
         id="glyph954"
         unicode="e"
         d="M 0,524 H 500 V 399 H 0 V 149 H 375 V 24 H 875 V 899 H 375 V 774 H 0 Z" />
      <glyph
         glyph-name="E"
         id="glyph956"
         unicode="E"
         d="M 0,524 H 500 V 399 H 0 V 149 H 375 V 24 H 875 V 899 H 375 V 774 H 0 Z" />
      <glyph
         glyph-name="f"
         id="glyph958"
         unicode="f"
         d="M 0,24 V 274 H 375 V 399 H 0 V 649 H 625 V 899 H 875 V 24 Z" />
      <glyph
         glyph-name="F"
         id="glyph960"
         unicode="F"
         d="M 0,24 V 274 H 375 V 399 H 0 V 649 H 625 V 899 H 875 V 24 Z" />
      <glyph
         glyph-name="g"
         id="glyph962"
         unicode="g"
         d="M 0,149 H 125 V 24 H 750 V 149 H 875 V 774 H 750 V 899 H 250 V 774 H 625 V 649 H 250 V 399 H 625 V 274 H 125 V 649 H 0 Z" />
      <glyph
         glyph-name="G"
         id="glyph964"
         unicode="G"
         d="M 0,149 H 125 V 24 H 750 V 149 H 875 V 774 H 750 V 899 H 250 V 774 H 625 V 649 H 250 V 399 H 625 V 274 H 125 V 649 H 0 Z" />
      <glyph
         glyph-name="h"
         id="glyph966"
         unicode="h"
         horiz-adv-x="750"
         d="M 0,899 V 524 H 625 V 899 Z M 0,399 V 24 h 625 v 375 z" />
      <glyph
         glyph-name="H"
         id="glyph969"
         unicode="H"
         horiz-adv-x="750"
         d="M 0,899 V 524 H 625 V 899 Z M 0,399 V 24 h 625 v 375 z" />
      <glyph
         glyph-name="i"
         id="glyph972"
         unicode="i"
         d="M 0,899 V 24 H 250 V 149 H 375 V 774 H 250 v 125 z m 625,0 V 774 H 500 V 149 H 625 V 24 h 250 v 875 z" />
      <glyph
         glyph-name="I"
         id="glyph974"
         unicode="I"
         d="M 0,899 V 24 H 250 V 149 H 375 V 774 H 250 v 125 z m 625,0 V 774 H 500 V 149 H 625 V 24 h 250 v 875 z" />
      <glyph
         glyph-name="j"
         id="glyph977"
         unicode="j"
         d="M 0,899 V 774 h 125 v 125 z m 750,0 V 774 H 875 V 899 Z M 125,649 V 24 h 500 v 625 z" />
      <glyph
         glyph-name="J"
         id="glyph979"
         unicode="J"
         d="M 0,899 V 774 h 125 v 125 z m 750,0 V 774 H 875 V 899 Z M 125,649 V 24 h 500 v 625 z" />
      <glyph
         glyph-name="k"
         id="glyph982"
         unicode="k"
         d="M 250,899 V 774 H 875 V 899 Z M 0,649 V 274 H 625 V 399 H 750 V 524 H 625 V 649 Z M 250,149 V 24 h 625 v 125 z" />
      <glyph
         glyph-name="K"
         id="glyph984"
         unicode="K"
         d="M 250,899 V 774 H 875 V 899 Z M 0,649 V 274 H 625 V 399 H 750 V 524 H 625 V 649 Z M 250,149 V 24 h 625 v 125 z" />
      <glyph
         glyph-name="l"
         id="glyph986"
         unicode="l"
         horiz-adv-x="750"
         d="M 0,24 H 625 V 649 H 0 Z" />
      <glyph
         glyph-name="L"
         id="glyph988"
         unicode="L"
         horiz-adv-x="750"
         d="M 0,24 H 625 V 649 H 0 Z" />
      <glyph
         glyph-name="m"
         id="glyph990"
         unicode="m"
         d="M 0,899 V 149 H 125 V 274 H 250 V 399 H 375 V 274 H 500 V 149 h 125 v 750 z"
         horiz-adv-x="750" />
      <glyph
         glyph-name="M"
         id="glyph992"
         unicode="M"
         horiz-adv-x="750"
         d="M 0,899 V 149 H 125 V 274 H 250 V 399 H 375 V 274 H 500 V 149 h 125 v 750 z" />
      <glyph
         glyph-name="n"
         id="glyph995"
         unicode="n"
         horiz-adv-x="750"
         d="M 0,899 0.015625,399 H 125.01562 v 125 h 125 v 125 h 125 v 125 h 125 V 899 Z M 500,649 V 524 H 375 V 399 H 250 V 274 H 125 V 149 H 0 V 24 h 625 v 625 z" />
      <glyph
         glyph-name="N"
         id="glyph997"
         unicode="N"
         horiz-adv-x="750"
         d="M 0,899 0.015625,399 H 125.01562 v 125 h 125 v 125 h 125 v 125 h 125 V 899 Z M 500,649 V 524 H 375 V 399 H 250 V 274 H 125 V 149 H 0 V 24 h 625 v 625 z" />
      <glyph
         glyph-name="o"
         id="glyph1000"
         unicode="o"
         d="M 0,899 V 774 H 125 V 899 Z M 125,774 V 149 h 625 v 625 z m 625,0 H 875 V 899 H 750 Z m 0,-625 V 24 h 125 v 125 z m -625,0 H 0 V 24 h 125 z" />
      <glyph
         glyph-name="O"
         id="glyph1002"
         unicode="O"
         d="M 0,899 V 774 H 125 V 899 Z M 125,774 V 149 h 625 v 625 z m 625,0 H 875 V 899 H 750 Z m 0,-625 V 24 h 125 v 125 z m -625,0 H 0 V 24 h 125 z" />
      <glyph
         glyph-name="p"
         id="glyph1004"
         unicode="p"
         horiz-adv-x="750"
         d="M 0,899 V 524 H 625 V 899 Z M 0,399 V 149 h 500 v 250 z" />
      <glyph
         glyph-name="P"
         id="glyph1007"
         unicode="P"
         horiz-adv-x="750"
         d="M 0,899 V 524 H 625 V 899 Z M 0,399 V 149 h 500 v 250 z" />
      <glyph
         glyph-name="q"
         id="glyph1009"
         unicode="q"
         d="M 875,899 V 274 H 750 V 149 H 125 V 274 H 0 V 899 H 125 V 774 H 250 V 524 H 500 V 774 H 250 V 899 H 125 v 125 H 750 V 899 Z" />
      <glyph
         glyph-name="Q"
         id="glyph1011"
         unicode="Q"
         d="M 875,899 V 274 H 750 V 149 H 125 V 274 H 0 V 899 H 125 V 774 H 250 V 524 H 500 V 774 H 250 V 899 H 125 v 125 H 750 V 899 Z" />
      <glyph
         glyph-name="r"
         id="glyph1013"
         unicode="r"
         d="M 0,899 V 524 H 500 V 899 Z M 0,399 V 149 h 625 v 250 z"
         horiz-adv-x="750" />
      <glyph
         glyph-name="R"
         id="glyph1016"
         unicode="R"
         horiz-adv-x="750"
         d="M 0,899 V 524 H 500 V 899 Z M 0,399 V 149 h 625 v 250 z" />
      <glyph
         glyph-name="s"
         id="glyph1018"
         unicode="s"
         d="M 125,774 V 649 H 0 V 524 h 750 v 250 z m 0,-375 V 149 h 625 v 125 h 125 v 125 z" />
      <glyph
         glyph-name="S"
         id="glyph1021"
         unicode="S"
         d="M 125,774 V 649 H 0 V 524 h 750 v 250 z m 0,-375 V 149 h 625 v 125 h 125 v 125 z" />
      <glyph
         glyph-name="t"
         id="glyph1023"
         unicode="t"
         d="M 0,899 V 149 h 375 v 750 z m 500,0 V 149 h 375 v 750 z" />
      <glyph
         glyph-name="T"
         id="glyph1026"
         unicode="T"
         d="M 0,899 V 149 h 375 v 750 z m 500,0 V 149 h 375 v 750 z" />
      <glyph
         glyph-name="u"
         id="glyph1028"
         unicode="u"
         d="M 0,24 H 625 V 649 H 500 V 774 H 125 V 649 H 0 Z"
         horiz-adv-x="750" />
      <glyph
         glyph-name="U"
         id="glyph1030"
         unicode="U"
         horiz-adv-x="750"
         d="M 0,24 H 625 V 649 H 500 V 774 H 125 V 649 H 0 Z" />
      <glyph
         glyph-name="v"
         id="glyph1032"
         unicode="v"
         d="M 0,899 V 774 h 125 v 125 z m 750,0 V 774 H 875 V 899 Z M 375,774 V 649 H 250 V 399 H 125 V 24 H 750 V 399 H 625 V 649 H 500 v 125 z" />
      <glyph
         glyph-name="V"
         id="glyph1035"
         unicode="V"
         d="M 0,899 V 774 h 125 v 125 z m 750,0 V 774 H 875 V 899 Z M 375,774 V 649 H 250 V 399 H 125 V 24 H 750 V 399 H 625 V 649 H 500 v 125 z" />
      <glyph
         glyph-name="w"
         id="glyph1038"
         unicode="w"
         d="M 0,899 V 524 H 125 V 899 Z M 125,524 V 24 H 750 V 524 H 625 V 774 H 500 V 399 H 375 V 774 H 250 V 524 Z m 625,0 H 875 V 899 H 750 Z" />
      <glyph
         glyph-name="W"
         id="glyph1040"
         unicode="W"
         d="M 0,899 V 524 H 125 V 899 Z M 125,524 V 24 H 750 V 524 H 625 V 774 H 500 V 399 H 375 V 774 H 250 V 524 Z m 625,0 H 875 V 899 H 750 Z" />
      <glyph
         glyph-name="x"
         id="glyph1043"
         unicode="x"
         d="M 125,899 V 774 H 250 V 649 H 375 V 524 H 500 V 649 H 625 V 774 H 750 V 899 Z M 750,774 V 649 H 625 V 524 H 500 V 399 H 625 V 274 H 750 V 149 h 125 v 625 z m 0,-625 H 625 V 274 H 500 V 399 H 375 V 274 H 250 V 149 H 125 V 24 h 625 z m -625,0 V 274 H 250 V 399 H 375 V 524 H 250 V 649 H 125 V 774 H 0 V 149 Z" />
      <glyph
         glyph-name="X"
         id="glyph1045"
         unicode="X"
         d="M 125,899 V 774 H 250 V 649 H 375 V 524 H 500 V 649 H 625 V 774 H 750 V 899 Z M 750,774 V 649 H 625 V 524 H 500 V 399 H 625 V 274 H 750 V 149 h 125 v 625 z m 0,-625 H 625 V 274 H 500 V 399 H 375 V 274 H 250 V 149 H 125 V 24 h 625 z m -625,0 V 274 H 250 V 399 H 375 V 524 H 250 V 649 H 125 V 774 H 0 V 149 Z" />
      <glyph
         glyph-name="y"
         id="glyph1047"
         unicode="y"
         d="m 250,149 h 375 v 250 h 250 v 625 H 625 V 524 H 500 V 399 H 375 V 524 H 250 v 500 H 0 V 399 h 250 z" />
      <glyph
         glyph-name="Y"
         id="glyph1049"
         unicode="Y"
         d="m 250,149 h 375 v 250 h 250 v 625 H 625 V 524 H 500 V 399 H 375 V 524 H 250 v 500 H 0 V 399 h 250 z" />
      <glyph
         glyph-name="z"
         id="glyph1051"
         unicode="z"
         d="M 250,899 V 774 H 375 V 649 H 500 V 524 H 625 V 399 H 750 V 274 H 875 V 899 Z M 0,774 V 149 H 625 V 274 H 500 V 399 H 375 V 524 H 250 V 649 H 125 v 125 z" />
      <glyph
         glyph-name="Z"
         id="glyph1054"
         unicode="Z"
         d="M 250,899 V 774 H 375 V 649 H 500 V 524 H 625 V 399 H 750 V 274 H 875 V 899 Z M 0,774 V 149 H 625 V 274 H 500 V 399 H 375 V 524 H 250 V 649 H 125 v 125 z" />
    </font>
</defs>
</svg>
